<svg
    xmlns="http://www.w3.org/2000/svg"
    viewBox="0 0 431 628"
    id="vector">
    <defs>
        <clipPath id="clip_path">
            <path d="M 30 0 L 401 0 C 408.953 0 416.589 3.163 422.213 8.787 C 427.837 14.411 431 22.047 431 30 L 431 598 C 431 605.953 427.837 613.589 422.213 619.213 C 416.589 624.837 408.953 628 401 628 L 30 628 C 22.047 628 14.411 624.837 8.787 619.213 C 3.163 613.589 0 605.953 0 598 L 0 30 C 0 22.047 3.163 14.411 8.787 8.787 C 14.411 3.163 22.047 0 30 0 Z"/>
        </clipPath>
        <clipPath id="clip_path_1">
            <path d="M 30 0 L 401 0 C 408.953 0 416.589 3.163 422.213 8.787 C 427.837 14.411 431 22.047 431 30 L 431 598 C 431 605.953 427.837 613.589 422.213 619.213 C 416.589 624.837 408.953 628 401 628 L 30 628 C 22.047 628 14.411 624.837 8.787 619.213 C 3.163 613.589 0 605.953 0 598 L 0 30 C 0 22.047 3.163 14.411 8.787 8.787 C 14.411 3.163 22.047 0 30 0 Z"/>
        </clipPath>
        <clipPath id="clip_path_2">
            <path d="M 30 0 L 401 0 C 408.953 0 416.589 3.163 422.213 8.787 C 427.837 14.411 431 22.047 431 30 L 431 598 C 431 605.953 427.837 613.589 422.213 619.213 C 416.589 624.837 408.953 628 401 628 L 30 628 C 22.047 628 14.411 624.837 8.787 619.213 C 3.163 613.589 0 605.953 0 598 L 0 30 C 0 22.047 3.163 14.411 8.787 8.787 C 14.411 3.163 22.047 0 30 0 Z"/>
        </clipPath>
        <clipPath id="clip_path_3">
            <path d="M 30 0 L 401 0 C 408.953 0 416.589 3.163 422.213 8.787 C 427.837 14.411 431 22.047 431 30 L 431 598 C 431 605.953 427.837 613.589 422.213 619.213 C 416.589 624.837 408.953 628 401 628 L 30 628 C 22.047 628 14.411 624.837 8.787 619.213 C 3.163 613.589 0 605.953 0 598 L 0 30 C 0 22.047 3.163 14.411 8.787 8.787 C 14.411 3.163 22.047 0 30 0 Z"/>
        </clipPath>
        <clipPath id="clip_path_4">
            <path d="M 30 0 L 401 0 C 408.953 0 416.589 3.163 422.213 8.787 C 427.837 14.411 431 22.047 431 30 L 431 598 C 431 605.953 427.837 613.589 422.213 619.213 C 416.589 624.837 408.953 628 401 628 L 30 628 C 22.047 628 14.411 624.837 8.787 619.213 C 3.163 613.589 0 605.953 0 598 L 0 30 C 0 22.047 3.163 14.411 8.787 8.787 C 14.411 3.163 22.047 0 30 0 Z"/>
        </clipPath>
        <clipPath id="clip_path_5">
            <path d="M 30 0 L 401 0 C 408.953 0 416.589 3.163 422.213 8.787 C 427.837 14.411 431 22.047 431 30 L 431 598 C 431 605.953 427.837 613.589 422.213 619.213 C 416.589 624.837 408.953 628 401 628 L 30 628 C 22.047 628 14.411 624.837 8.787 619.213 C 3.163 613.589 0 605.953 0 598 L 0 30 C 0 22.047 3.163 14.411 8.787 8.787 C 14.411 3.163 22.047 0 30 0 Z"/>
        </clipPath>
        <clipPath id="clip_path_6">
            <path d="M 30 0 L 401 0 C 408.953 0 416.589 3.163 422.213 8.787 C 427.837 14.411 431 22.047 431 30 L 431 598 C 431 605.953 427.837 613.589 422.213 619.213 C 416.589 624.837 408.953 628 401 628 L 30 628 C 22.047 628 14.411 624.837 8.787 619.213 C 3.163 613.589 0 605.953 0 598 L 0 30 C 0 22.047 3.163 14.411 8.787 8.787 C 14.411 3.163 22.047 0 30 0 Z"/>
        </clipPath>
        <clipPath id="clip_path_7">
            <path d="M 30 0 L 401 0 C 408.953 0 416.589 3.163 422.213 8.787 C 427.837 14.411 431 22.047 431 30 L 431 598 C 431 605.953 427.837 613.589 422.213 619.213 C 416.589 624.837 408.953 628 401 628 L 30 628 C 22.047 628 14.411 624.837 8.787 619.213 C 3.163 613.589 0 605.953 0 598 L 0 30 C 0 22.047 3.163 14.411 8.787 8.787 C 14.411 3.163 22.047 0 30 0 Z"/>
        </clipPath>
        <clipPath id="clip_path_8">
            <path d="M 30 0 L 401 0 C 408.953 0 416.589 3.163 422.213 8.787 C 427.837 14.411 431 22.047 431 30 L 431 598 C 431 605.953 427.837 613.589 422.213 619.213 C 416.589 624.837 408.953 628 401 628 L 30 628 C 22.047 628 14.411 624.837 8.787 619.213 C 3.163 613.589 0 605.953 0 598 L 0 30 C 0 22.047 3.163 14.411 8.787 8.787 C 14.411 3.163 22.047 0 30 0 Z"/>
        </clipPath>
        <clipPath id="clip_path_9">
            <path d="M 30 0 L 401 0 C 408.953 0 416.589 3.163 422.213 8.787 C 427.837 14.411 431 22.047 431 30 L 431 598 C 431 605.953 427.837 613.589 422.213 619.213 C 416.589 624.837 408.953 628 401 628 L 30 628 C 22.047 628 14.411 624.837 8.787 619.213 C 3.163 613.589 0 605.953 0 598 L 0 30 C 0 22.047 3.163 14.411 8.787 8.787 C 14.411 3.163 22.047 0 30 0 Z"/>
        </clipPath>
        <clipPath id="clip_path_10">
            <path d="M 30 0 L 401 0 C 408.953 0 416.589 3.163 422.213 8.787 C 427.837 14.411 431 22.047 431 30 L 431 598 C 431 605.953 427.837 613.589 422.213 619.213 C 416.589 624.837 408.953 628 401 628 L 30 628 C 22.047 628 14.411 624.837 8.787 619.213 C 3.163 613.589 0 605.953 0 598 L 0 30 C 0 22.047 3.163 14.411 8.787 8.787 C 14.411 3.163 22.047 0 30 0 Z"/>
        </clipPath>
        <clipPath id="clip_path_11">
            <path d="M 30 0 L 401 0 C 408.953 0 416.589 3.163 422.213 8.787 C 427.837 14.411 431 22.047 431 30 L 431 598 C 431 605.953 427.837 613.589 422.213 619.213 C 416.589 624.837 408.953 628 401 628 L 30 628 C 22.047 628 14.411 624.837 8.787 619.213 C 3.163 613.589 0 605.953 0 598 L 0 30 C 0 22.047 3.163 14.411 8.787 8.787 C 14.411 3.163 22.047 0 30 0 Z"/>
        </clipPath>
        <clipPath id="clip_path_12">
            <path d="M 30 0 L 401 0 C 408.953 0 416.589 3.163 422.213 8.787 C 427.837 14.411 431 22.047 431 30 L 431 598 C 431 605.953 427.837 613.589 422.213 619.213 C 416.589 624.837 408.953 628 401 628 L 30 628 C 22.047 628 14.411 624.837 8.787 619.213 C 3.163 613.589 0 605.953 0 598 L 0 30 C 0 22.047 3.163 14.411 8.787 8.787 C 14.411 3.163 22.047 0 30 0 Z"/>
        </clipPath>
        <clipPath id="clip_path_13">
            <path d="M 30 0 L 401 0 C 408.953 0 416.589 3.163 422.213 8.787 C 427.837 14.411 431 22.047 431 30 L 431 598 C 431 605.953 427.837 613.589 422.213 619.213 C 416.589 624.837 408.953 628 401 628 L 30 628 C 22.047 628 14.411 624.837 8.787 619.213 C 3.163 613.589 0 605.953 0 598 L 0 30 C 0 22.047 3.163 14.411 8.787 8.787 C 14.411 3.163 22.047 0 30 0 Z"/>
        </clipPath>
        <clipPath id="clip_path_14">
            <path d="M 30 0 L 401 0 C 408.953 0 416.589 3.163 422.213 8.787 C 427.837 14.411 431 22.047 431 30 L 431 598 C 431 605.953 427.837 613.589 422.213 619.213 C 416.589 624.837 408.953 628 401 628 L 30 628 C 22.047 628 14.411 624.837 8.787 619.213 C 3.163 613.589 0 605.953 0 598 L 0 30 C 0 22.047 3.163 14.411 8.787 8.787 C 14.411 3.163 22.047 0 30 0 Z"/>
        </clipPath>
        <clipPath id="clip_path_15">
            <path d="M 30 0 L 401 0 C 408.953 0 416.589 3.163 422.213 8.787 C 427.837 14.411 431 22.047 431 30 L 431 598 C 431 605.953 427.837 613.589 422.213 619.213 C 416.589 624.837 408.953 628 401 628 L 30 628 C 22.047 628 14.411 624.837 8.787 619.213 C 3.163 613.589 0 605.953 0 598 L 0 30 C 0 22.047 3.163 14.411 8.787 8.787 C 14.411 3.163 22.047 0 30 0 Z"/>
        </clipPath>
        <clipPath id="clip_path_16">
            <path d="M 30 0 L 401 0 C 408.953 0 416.589 3.163 422.213 8.787 C 427.837 14.411 431 22.047 431 30 L 431 598 C 431 605.953 427.837 613.589 422.213 619.213 C 416.589 624.837 408.953 628 401 628 L 30 628 C 22.047 628 14.411 624.837 8.787 619.213 C 3.163 613.589 0 605.953 0 598 L 0 30 C 0 22.047 3.163 14.411 8.787 8.787 C 14.411 3.163 22.047 0 30 0 Z"/>
        </clipPath>
        <clipPath id="clip_path_17">
            <path d="M 30 0 L 401 0 C 408.953 0 416.589 3.163 422.213 8.787 C 427.837 14.411 431 22.047 431 30 L 431 598 C 431 605.953 427.837 613.589 422.213 619.213 C 416.589 624.837 408.953 628 401 628 L 30 628 C 22.047 628 14.411 624.837 8.787 619.213 C 3.163 613.589 0 605.953 0 598 L 0 30 C 0 22.047 3.163 14.411 8.787 8.787 C 14.411 3.163 22.047 0 30 0 Z"/>
        </clipPath>
    </defs>
    <g id="group">
        <path
            id="path"
            clip-path="url(#clip_path)"
            d="M 209.5 314 L 149.51 -469 L 269.49 -469 L 209.5 314 Z"
            fill="#e47b06"
            fill-opacity="0.063"
            stroke-opacity="0.3"/>
        <path
            id="path_1"
            clip-path="url(#clip_path_1)"
            d="M 209.5 314 L -114.67 -401.26 L -1.92 -442.29 L 209.5 314 Z"
            fill="#e47b06"
            fill-opacity="0.063"
            stroke-opacity="0.3"/>
        <path
            id="path_2"
            clip-path="url(#clip_path_2)"
            d="M 209.5 314 L -339.74 -247.25 L -247.83 -324.37 L 209.5 314 Z"
            fill="#e47b06"
            fill-opacity="0.063"
            stroke-opacity="0.3"/>
        <path
            id="path_3"
            clip-path="url(#clip_path_3)"
            d="M 209.5 314 L -498.57 -25.54 L -438.58 -129.46 L 209.5 314 Z"
            fill="#e47b06"
            fill-opacity="0.063"
            stroke-opacity="0.3"/>
        <path
            id="path_4"
            clip-path="url(#clip_path_4)"
            d="M 209.5 314 L -572 237.12 L -551.16 118.96 L 209.5 314 Z"
            fill="#e47b06"
            fill-opacity="0.063"
            stroke-opacity="0.3"/>
        <path
            id="path_5"
            clip-path="url(#clip_path_5)"
            d="M 209.5 314 L -551.16 509.04 L -572 390.88 L 209.5 314 Z"
            fill="#e47b06"
            fill-opacity="0.063"
            stroke-opacity="0.3"/>
        <path
            id="path_6"
            clip-path="url(#clip_path_6)"
            d="M 209.5 314 L -438.58 757.46 L -498.57 653.56 L 209.5 314 Z"
            fill="#e47b06"
            fill-opacity="0.063"
            stroke-opacity="0.3"/>
        <path
            id="path_7"
            clip-path="url(#clip_path_7)"
            d="M 209.5 314 L -247.83 952.37 L -339.74 875.25 L 209.5 314 Z"
            fill="#e47b06"
            fill-opacity="0.063"
            stroke-opacity="0.3"/>
        <path
            id="path_8"
            clip-path="url(#clip_path_8)"
            d="M 209.5 314 L -1.92 1070.31 L -114.67 1029.25 L 209.5 314 Z"
            fill="#e47b06"
            fill-opacity="0.063"
            stroke-opacity="0.3"/>
        <path
            id="path_9"
            clip-path="url(#clip_path_9)"
            d="M 209.5 314 L 269.49 1097 L 149.51 1097 L 209.5 314 Z"
            fill="#e47b06"
            fill-opacity="0.063"
            stroke-opacity="0.3"/>
        <path
            id="path_10"
            clip-path="url(#clip_path_10)"
            d="M 209.5 314 L 533.67 1029.25 L 420.92 1070.31 L 209.5 314 Z"
            fill="#e47b06"
            fill-opacity="0.063"
            stroke-opacity="0.3"/>
        <path
            id="path_11"
            clip-path="url(#clip_path_11)"
            d="M 209.5 314 L 758.73 875.25 L 666.83 952.37 L 209.5 314 Z"
            fill="#e47b06"
            fill-opacity="0.063"
            stroke-opacity="0.3"/>
        <path
            id="path_12"
            clip-path="url(#clip_path_12)"
            d="M 209.5 314 L 917.57 653.56 L 857.58 757.46 L 209.5 314 Z"
            fill="#e47b06"
            fill-opacity="0.063"
            stroke-opacity="0.3"/>
        <path
            id="path_13"
            clip-path="url(#clip_path_13)"
            d="M 209.5 314 L 991 390.88 L 970.16 509.04 L 209.5 314 Z"
            fill="#e47b06"
            fill-opacity="0.063"
            stroke-opacity="0.3"/>
        <path
            id="path_14"
            clip-path="url(#clip_path_14)"
            d="M 209.5 314 L 970.16 118.96 L 991 237.12 L 209.5 314 Z"
            fill="#e47b06"
            fill-opacity="0.063"
            stroke-opacity="0.3"/>
        <path
            id="path_15"
            clip-path="url(#clip_path_15)"
            d="M 209.5 314 L 857.58 -129.46 L 917.57 -25.54 L 209.5 314 Z"
            fill="#e47b06"
            fill-opacity="0.063"
            stroke-opacity="0.3"/>
        <path
            id="path_16"
            clip-path="url(#clip_path_16)"
            d="M 209.5 314 L 666.83 -324.37 L 758.73 -247.25 L 209.5 314 Z"
            fill="#e47b06"
            fill-opacity="0.063"
            stroke-opacity="0.3"/>
        <path
            id="path_17"
            clip-path="url(#clip_path_17)"
            d="M 209.5 314 L 420.92 -442.29 L 533.67 -401.26 L 209.5 314 Z"
            fill="#e47b06"
            fill-opacity="0.063"
            stroke-opacity="0.3"/>
    </g>
</svg>
